<svg width="186" height="186" viewBox="0 0 186 186" fill="none" xmlns="http://www.w3.org/2000/svg">
<path d="M62.0057 185.86V45.5562H123.537C136.263 45.5562 147.229 47.6274 156.435 51.7697C165.641 55.7783 172.748 61.5909 177.758 69.2074C182.767 76.8239 185.271 85.9102 185.271 96.4663C185.271 106.889 182.767 115.908 177.758 123.525C172.748 131.141 165.641 137.021 156.435 141.163C147.229 145.172 136.263 147.176 123.537 147.176H80.2823L94.9036 132.544V185.86H62.0057ZM94.9036 136.152L80.2823 120.719H121.709C131.863 120.719 139.444 118.581 144.454 114.305C149.463 110.029 151.967 104.083 151.967 96.4663C151.967 88.7162 149.463 82.7032 144.454 78.4273C139.444 74.1514 131.863 72.0135 121.709 72.0135H80.2823L94.9036 56.5801V136.152Z" fill="#FE4F02"/>
<path d="M0.271338 141.163V0.859606H61.8026C74.5286 0.859606 85.4945 2.93075 94.7005 7.07305C103.907 11.0817 111.014 16.8943 116.023 24.5107C121.032 32.1272 123.537 41.2135 123.537 51.7697C123.537 62.1922 121.032 71.2117 116.023 78.8282C111.014 86.4447 103.907 92.3241 94.7005 96.4663C85.4945 100.475 74.5286 102.479 61.8026 102.479H18.548L33.1692 87.8477V141.163H0.271338ZM33.1692 91.4555L18.548 76.0221H59.975C70.1286 76.0221 77.71 73.8842 82.7192 69.6083C87.7283 65.3324 90.2329 59.3862 90.2329 51.7697C90.2329 44.0196 87.7283 38.0066 82.7192 33.7307C77.71 29.4548 70.1286 27.3168 59.975 27.3168H18.548L33.1692 11.8834V91.4555Z" fill="#6A33CF"/>
</svg>
