<svg xmlns="http://www.w3.org/2000/svg">
	<symbol id="statistics-icon">
		<path d="M2.25 1.875C2.34946 1.875 2.4453 1.91405 2.51562 1.98438C2.58595 2.0547 2.625 2.15054 2.625 2.25V21.375H21.75C21.8495 21.375 21.9453 21.4141 22.0156 21.4844C22.0859 21.5547 22.125 21.6505 22.125 21.75C22.125 21.8495 22.0859 21.9453 22.0156 22.0156C21.9453 22.0859 21.8495 22.125 21.75 22.125H2.25C2.15054 22.125 2.0547 22.086 1.98438 22.0156C1.91405 21.9453 1.875 21.8495 1.875 21.75V2.25C1.875 2.15054 1.91405 2.0547 1.98438 1.98438C2.0372 1.93155 2.10455 1.8962 2.17676 1.88184L2.25 1.875Z" stroke-width="0.75"/>
		<path d="M19.7949 4.18652C20.2108 4.07753 20.6513 4.11478 21.043 4.29199C21.4347 4.46926 21.7536 4.77571 21.9463 5.16016C22.1389 5.54456 22.194 5.98342 22.1016 6.40332C22.0091 6.82326 21.7748 7.19888 21.4385 7.4668C21.1022 7.73467 20.6839 7.87874 20.2539 7.875H20.2383L20.2227 7.87598C20.1313 7.88267 20.0396 7.88269 19.9482 7.87598L19.7314 7.86035L19.6094 8.04004L16.8047 12.2031L16.8018 12.207C16.7876 12.2287 16.7712 12.2493 16.7529 12.2676L16.5547 12.4658L16.6885 12.7119C16.8142 12.9426 16.8901 13.1971 16.9111 13.459C16.9321 13.7209 16.8979 13.9846 16.8105 14.2324C16.7232 14.4803 16.585 14.7076 16.4043 14.8984C16.2237 15.0892 16.0043 15.24 15.7617 15.3408C15.5191 15.4416 15.2577 15.49 14.9951 15.4834C14.7325 15.4768 14.4745 15.4146 14.2373 15.3018C14.0001 15.1889 13.789 15.0277 13.6182 14.8281C13.4474 14.6286 13.32 14.3953 13.2451 14.1436L13.165 13.875H9.73438L9.71875 13.876C9.69763 13.8778 9.67639 13.8778 9.65527 13.876L9.36621 13.8516L9.26953 14.125C9.14022 14.4907 8.90074 14.8074 8.58398 15.0312C8.26726 15.2551 7.88881 15.3752 7.50098 15.375H7.28809L7.02051 15.3613L6.91992 15.6094L5.60059 18.8877L5.59961 18.8887C5.58143 18.9345 5.55388 18.9764 5.51953 19.0117C5.48524 19.047 5.44458 19.0752 5.39941 19.0947C5.35414 19.1142 5.30516 19.1253 5.25586 19.126C5.20665 19.1266 5.15801 19.1169 5.1123 19.0986L5.10254 19.0957L5.09277 19.0918C5.04402 19.0753 4.99906 19.0492 4.96094 19.0146C4.92267 18.9799 4.89222 18.9368 4.87109 18.8896C4.85003 18.8425 4.83836 18.7918 4.83789 18.7402C4.83743 18.6886 4.84791 18.6374 4.86816 18.5898L4.87109 18.5811L6.22168 15.1992L6.31055 14.9766L6.14551 14.8018C5.95368 14.5994 5.80886 14.357 5.72266 14.0918C5.63646 13.8266 5.61033 13.545 5.64648 13.2686C5.68268 12.9922 5.7802 12.7272 5.93164 12.4932C6.08307 12.2592 6.28519 12.0622 6.52246 11.916C6.75988 11.7698 7.02745 11.6784 7.30469 11.6484C7.58175 11.6185 7.86195 11.6502 8.125 11.7422C8.38821 11.8343 8.6281 11.9844 8.82617 12.1807C9.02409 12.3769 9.17609 12.6147 9.27051 12.877L9.36816 13.1484L9.65527 13.124C9.67639 13.1222 9.69763 13.1222 9.71875 13.124L9.73438 13.125H13.1504L13.2393 12.875C13.3264 12.629 13.4635 12.4036 13.6426 12.2139C13.8217 12.0241 14.0387 11.8737 14.2793 11.7725C14.5198 11.6713 14.7792 11.6213 15.04 11.626C15.3009 11.6307 15.5582 11.6901 15.7949 11.7998L16.0869 11.9355L16.2646 11.668L18.9053 7.70801L19.0664 7.4668L18.873 7.25C18.5864 6.92953 18.4183 6.52024 18.3975 6.09082C18.3767 5.66131 18.5044 5.23732 18.7588 4.89062C19.0132 4.54406 19.3791 4.29556 19.7949 4.18652ZM7.50098 12.375C7.20268 12.375 6.91604 12.4932 6.70508 12.7041C6.4941 12.9151 6.37598 13.2016 6.37598 13.5C6.37599 13.7225 6.44183 13.94 6.56543 14.125C6.68904 14.3099 6.86481 14.4539 7.07031 14.5391C7.27573 14.6241 7.50166 14.6468 7.71973 14.6035C7.9378 14.5601 8.13861 14.4531 8.2959 14.2959C8.45313 14.1387 8.56006 13.9378 8.60352 13.7197C8.64692 13.5015 8.62519 13.2749 8.54004 13.0693C8.45493 12.8639 8.31086 12.6881 8.12598 12.5645C7.94108 12.4409 7.72334 12.3751 7.50098 12.375ZM15.001 12.375C14.7027 12.375 14.416 12.4932 14.2051 12.7041C13.9941 12.9151 13.876 13.2016 13.876 13.5C13.876 13.7225 13.9418 13.94 14.0654 14.125C14.189 14.3099 14.3648 14.4539 14.5703 14.5391C14.7757 14.6241 15.0017 14.6468 15.2197 14.6035C15.4378 14.5601 15.6386 14.4531 15.7959 14.2959C15.9531 14.1387 16.0601 13.9378 16.1035 13.7197C16.1469 13.5015 16.1252 13.2749 16.04 13.0693C15.9549 12.8639 15.8109 12.6881 15.626 12.5645C15.4411 12.4409 15.2233 12.3751 15.001 12.375ZM20.251 4.875C19.9527 4.875 19.666 4.99322 19.4551 5.2041C19.2441 5.41508 19.126 5.70163 19.126 6C19.126 6.22247 19.1918 6.44002 19.3154 6.625C19.439 6.80993 19.6148 6.95394 19.8203 7.03906C20.0257 7.12412 20.2517 7.14682 20.4697 7.10352C20.6878 7.06014 20.8886 6.95305 21.0459 6.7959C21.2031 6.63866 21.3101 6.4378 21.3535 6.21973C21.3969 6.0015 21.3752 5.7749 21.29 5.56934C21.2049 5.36386 21.0609 5.18806 20.876 5.06445C20.6911 4.94091 20.4733 4.87508 20.251 4.875Z"  stroke-width="0.75"/>
	</symbol>

	<symbol id="monitoring-icon">
		<path d="M4.29395 2.14307H19.708C20.889 2.14329 21.8505 3.10457 21.8506 4.28564V16.144C21.8506 17.3252 20.8891 18.2874 19.708 18.2876H14.876L15.0029 18.8159L15.4492 20.6714L15.5273 21.0005H17.9961C18.2326 21.0005 18.4246 21.1918 18.4248 21.4282C18.4248 21.6649 18.2328 21.8569 17.9961 21.8569H6.00586C5.7692 21.8569 5.57715 21.6649 5.57715 21.4282C5.57738 21.1918 5.76934 21.0005 6.00586 21.0005H8.47461L8.55371 20.6714L8.99902 18.8159L9.12598 18.2876H4.29395C3.11273 18.2875 2.15137 17.3253 2.15137 16.144V4.28564C2.15144 3.10448 3.11278 2.14314 4.29395 2.14307ZM9.92773 18.6157L9.48242 20.4712L9.35547 21.0005H14.6465L14.5195 20.4712L14.0742 18.6157L13.9951 18.2876H10.0068L9.92773 18.6157ZM3.00879 16.144C3.00879 16.8532 3.5848 17.4301 4.29395 17.4302H19.708C20.417 17.4299 20.9932 16.8531 20.9932 16.144V14.8433H3.00879V16.144ZM4.29395 3.00049C3.58485 3.00056 3.00886 3.57655 3.00879 4.28564V13.9858H20.9932V4.28564C20.9931 3.57664 20.417 3.00071 19.708 3.00049H4.29395Z"  stroke-width="0.857143"/>
		<path d="M6.19141 7.70435C9.39493 4.50162 14.608 4.50102 17.8105 7.70435L18.2969 8.1897C18.4641 8.35725 18.4639 8.62926 18.2969 8.79614H18.2959L17.8105 9.28149C16.2095 10.8829 14.1068 11.6837 12.002 11.6838C9.89661 11.6838 7.79346 10.8829 6.19238 9.28149L5.70703 8.79614H5.70605C5.53895 8.62924 5.53875 8.35727 5.70605 8.1897L6.19141 7.70435ZM17.0742 8.18188C14.2393 5.48299 9.7627 5.4839 6.92871 8.18188L6.60254 8.49243L6.92871 8.80298C9.76405 11.5032 14.2398 11.5023 17.0742 8.80298L17.3994 8.49243L17.0742 8.18188Z"  stroke-width="0.857143"/>
		<path d="M13.0725 8.49306C13.0725 7.9021 12.5921 7.42163 12.0011 7.42163C11.4102 7.42163 10.9297 7.9021 10.9297 8.49306C10.9297 9.08402 11.4102 9.56449 12.0011 9.56449C12.5921 9.56449 13.0725 9.08402 13.0725 8.49306Z" />
	</symbol>

	<symbol id="meter-icon">
		<path d="M8.82031 13.6836C8.93959 13.6142 9.10688 13.6402 9.20801 13.7578L9.24707 13.8145L11.2969 17.5273L11.4805 17.8604H11.8613C11.8995 17.8603 11.9332 17.8575 11.957 17.8555C11.9806 17.8534 12.0036 17.8511 12.0166 17.8496C12.0274 17.8484 12.0337 17.8471 12.0381 17.8467C13.0061 17.8516 13.7832 18.6324 13.7832 19.6016C13.783 20.5735 13.0012 21.3553 12.0293 21.3555C11.0615 21.3555 10.2754 20.5647 10.2754 19.5879C10.2755 19.1993 10.4187 18.8325 10.667 18.5146L10.9297 18.1787L10.7227 17.8057L8.68555 14.1299L8.68457 14.1289C8.59877 13.9741 8.65762 13.7743 8.80859 13.6904L8.82031 13.6836ZM12.0059 18.4814C11.9081 18.4847 11.8114 18.5015 11.7178 18.5303H11.6836L11.5996 18.5713C11.5985 18.5717 11.5977 18.5728 11.5967 18.5732C11.5693 18.5852 11.5438 18.5979 11.5215 18.6113C11.5172 18.6139 11.5138 18.6176 11.5098 18.6201C11.2277 18.7748 10.9895 19.0591 10.9326 19.4297L10.9199 19.6016L10.9258 19.7148C10.9825 20.2752 11.4536 20.71 12.0293 20.71C12.6432 20.7097 13.1514 20.2018 13.1514 19.5879C13.1513 19.4506 13.1256 19.3148 13.0762 19.1875L13.0186 19.0635L12.9463 18.9473C12.8935 18.873 12.832 18.8053 12.7627 18.7461L12.6533 18.6641L12.5352 18.5957C12.4533 18.5551 12.3666 18.5252 12.2773 18.5059L12.1426 18.4854L12.0059 18.4814Z"  stroke-width="1.2897"/>
		<path d="M5.04395 6.56445C5.00677 6.57118 4.96892 6.57617 4.93066 6.57617C4.9711 6.57617 5.00888 6.57051 5.04395 6.56445ZM2.64551 13.0049C2.64349 11.7809 2.88348 10.5685 3.35156 9.4375C3.81978 8.30632 4.50733 7.27872 5.37402 6.41406L5.44141 6.34668C7.13013 4.67213 9.44837 3.64551 12.0068 3.64551C13.2291 3.64504 14.4394 3.88632 15.5684 4.35449C16.6973 4.82266 17.7228 5.5088 18.5859 6.37402L18.625 6.41309C20.3161 8.10414 21.3545 10.4342 21.3545 13.0068V13.0078C21.3572 14.2369 21.1159 15.4543 20.6455 16.5898C20.1751 17.7255 19.4844 18.7568 18.6133 19.624L18.6123 19.625C18.5461 19.6912 18.4681 19.7207 18.3848 19.7207C18.3014 19.7207 18.2234 19.6912 18.1572 19.625L16.6465 18.1152C16.5242 17.9929 16.5242 17.7815 16.6465 17.6592C16.7688 17.537 16.9792 17.5371 17.1016 17.6592L17.8896 18.4473L18.4033 18.96L18.8525 18.3896C19.8429 17.1342 20.4573 15.6547 20.6523 14.0664L20.7412 13.3418H18.9014C18.7286 13.3418 18.5782 13.1923 18.5781 13.0195C18.5781 12.8467 18.7285 12.6963 18.9014 12.6963H20.7402L20.6523 11.9736C20.4569 10.354 19.8148 8.87534 18.8545 7.65039L18.4043 7.07715L17.1104 8.37109C17.0817 8.40016 17.0475 8.42286 17.0098 8.43848C16.972 8.45412 16.9315 8.46226 16.8906 8.46191C16.8497 8.46153 16.809 8.45289 16.7715 8.43652C16.7339 8.42014 16.7 8.39598 16.6719 8.36621L16.6592 8.35352C16.537 8.23124 16.5371 8.02076 16.6592 7.89844L17.4336 7.12305L17.9463 6.61133L17.3789 6.16113C16.1636 5.1973 14.6696 4.55561 13.0518 4.36035L12.3291 4.27344V6.11133C12.3291 6.29134 12.1851 6.43437 12.0068 6.43457C11.8228 6.43457 11.6838 6.28645 11.6836 6.125V4.28613L10.9609 4.37305C9.3411 4.56854 7.86175 5.21134 6.63672 6.17188L6.06348 6.62109L7.35352 7.91113C7.4758 8.03342 7.47574 8.24387 7.35352 8.36621C7.28731 8.43241 7.20929 8.46189 7.12598 8.46191C7.0646 8.46191 6.9803 8.43534 6.89844 8.35352L6.12305 7.5791L5.6084 7.06348L5.15918 7.63672C4.19864 8.86175 3.55585 10.3411 3.36035 11.9609L3.27344 12.6836H5.11133C5.25142 12.6836 5.42186 12.8258 5.42188 13.0322C5.42188 13.2051 5.27146 13.3555 5.09863 13.3555H3.25879L3.34766 14.0791C3.54041 15.6576 4.16254 17.153 5.14648 18.4023L5.59668 18.9736L6.89551 17.6748C6.95689 17.6142 7.03969 17.5801 7.12598 17.5801C7.21135 17.5801 7.29333 17.6134 7.35449 17.6729C7.47604 17.7953 7.47558 18.0059 7.35352 18.1279L5.84277 19.6387C5.77661 19.7047 5.69845 19.7334 5.61523 19.7334C5.55288 19.7334 5.49321 19.7175 5.43945 19.6816L5.3877 19.6387C3.62232 17.8606 2.64561 15.5194 2.64551 13.0068V13.0049Z"  stroke-width="1.29115"/>
	</symbol>

	<symbol id="calculation-icon">
		<mask id="path-1-inside-1_57_12675" fill="white">
			<path d="M6.09091 8.36364H6.54545V8.81818C6.54545 9.05929 6.64123 9.29052 6.81172 9.46101C6.98221 9.63149 7.21344 9.72727 7.45455 9.72727C7.69565 9.72727 7.92688 9.63149 8.09737 9.46101C8.26786 9.29052 8.36364 9.05929 8.36364 8.81818V8.36364H8.81818C9.05929 8.36364 9.29052 8.26786 9.46101 8.09737C9.63149 7.92688 9.72727 7.69565 9.72727 7.45455C9.72727 7.21344 9.63149 6.98221 9.46101 6.81172C9.29052 6.64123 9.05929 6.54545 8.81818 6.54545H8.36364V6.09091C8.36364 5.8498 8.26786 5.61857 8.09737 5.44809C7.92688 5.2776 7.69565 5.18182 7.45455 5.18182C7.21344 5.18182 6.98221 5.2776 6.81172 5.44809C6.64123 5.61857 6.54545 5.8498 6.54545 6.09091V6.54545H6.09091C5.8498 6.54545 5.61857 6.64123 5.44809 6.81172C5.2776 6.98221 5.18182 7.21344 5.18182 7.45455C5.18182 7.69565 5.2776 7.92688 5.44809 8.09737C5.61857 8.26786 5.8498 8.36364 6.09091 8.36364ZM5.52727 18.4727C5.6976 18.642 5.92801 18.7371 6.16818 18.7371C6.40835 18.7371 6.63876 18.642 6.80909 18.4727L7.45455 17.8273L8.1 18.4727C8.27033 18.642 8.50074 18.7371 8.74091 18.7371C8.98108 18.7371 9.21149 18.642 9.38182 18.4727C9.55114 18.3024 9.64617 18.072 9.64617 17.8318C9.64617 17.5917 9.55114 17.3612 9.38182 17.1909L8.73636 16.5455L9.38182 15.9C9.53075 15.7261 9.60858 15.5024 9.59974 15.2736C9.5909 15.0448 9.49605 14.8278 9.33415 14.6659C9.17224 14.5039 8.95521 14.4091 8.72641 14.4003C8.49762 14.3914 8.27391 14.4692 8.1 14.6182L7.45455 15.2636L6.80909 14.6182C6.63518 14.4692 6.41148 14.3914 6.18268 14.4003C5.95388 14.4091 5.73685 14.5039 5.57494 14.6659C5.41304 14.8278 5.31819 15.0448 5.30935 15.2736C5.30052 15.5024 5.37834 15.7261 5.52727 15.9L6.17273 16.5455L5.52727 17.1909C5.35795 17.3612 5.26292 17.5917 5.26292 17.8318C5.26292 18.072 5.35795 18.3024 5.52727 18.4727ZM19.2727 2H4.72727C4.00396 2 3.31026 2.28734 2.7988 2.7988C2.28734 3.31026 2 4.00396 2 4.72727V19.2727C2 19.996 2.28734 20.6897 2.7988 21.2012C3.31026 21.7127 4.00396 22 4.72727 22H19.2727C19.996 22 20.6897 21.7127 21.2012 21.2012C21.7127 20.6897 22 19.996 22 19.2727V4.72727C22 4.00396 21.7127 3.31026 21.2012 2.7988C20.6897 2.28734 19.996 2 19.2727 2ZM11.0909 20.1818H4.72727C4.48617 20.1818 4.25494 20.086 4.08445 19.9156C3.91396 19.7451 3.81818 19.5138 3.81818 19.2727V12.9091H11.0909V20.1818ZM11.0909 11.0909H3.81818V4.72727C3.81818 4.48617 3.91396 4.25494 4.08445 4.08445C4.25494 3.91396 4.48617 3.81818 4.72727 3.81818H11.0909V11.0909ZM20.1818 19.2727C20.1818 19.5138 20.086 19.7451 19.9156 19.9156C19.7451 20.086 19.5138 20.1818 19.2727 20.1818H12.9091V12.9091H20.1818V19.2727ZM20.1818 11.0909H12.9091V3.81818H19.2727C19.5138 3.81818 19.7451 3.91396 19.9156 4.08445C20.086 4.25494 20.1818 4.48617 20.1818 4.72727V11.0909ZM15.1818 16.0909H17.9091C18.1502 16.0909 18.3814 15.9951 18.5519 15.8246C18.7224 15.6542 18.8182 15.4229 18.8182 15.1818C18.8182 14.9407 18.7224 14.7095 18.5519 14.539C18.3814 14.3685 18.1502 14.2727 17.9091 14.2727H15.1818C14.9407 14.2727 14.7095 14.3685 14.539 14.539C14.3685 14.7095 14.2727 14.9407 14.2727 15.1818C14.2727 15.4229 14.3685 15.6542 14.539 15.8246C14.7095 15.9951 14.9407 16.0909 15.1818 16.0909ZM17.9091 6.54545H15.1818C14.9407 6.54545 14.7095 6.64123 14.539 6.81172C14.3685 6.98221 14.2727 7.21344 14.2727 7.45455C14.2727 7.69565 14.3685 7.92688 14.539 8.09737C14.7095 8.26786 14.9407 8.36364 15.1818 8.36364H17.9091C18.1502 8.36364 18.3814 8.26786 18.5519 8.09737C18.7224 7.92688 18.8182 7.69565 18.8182 7.45455C18.8182 7.21344 18.7224 6.98221 18.5519 6.81172C18.3814 6.64123 18.1502 6.54545 17.9091 6.54545ZM15.1818 18.8182H17.9091C18.1502 18.8182 18.3814 18.7224 18.5519 18.5519C18.7224 18.3814 18.8182 18.1502 18.8182 17.9091C18.8182 17.668 18.7224 17.4368 18.5519 17.2663C18.3814 17.0958 18.1502 17 17.9091 17H15.1818C14.9407 17 14.7095 17.0958 14.539 17.2663C14.3685 17.4368 14.2727 17.668 14.2727 17.9091C14.2727 18.1502 14.3685 18.3814 14.539 18.5519C14.7095 18.7224 14.9407 18.8182 15.1818 18.8182Z"/>
		</mask>
		<path d="M6.09091 8.36364H6.54545V8.81818C6.54545 9.05929 6.64123 9.29052 6.81172 9.46101C6.98221 9.63149 7.21344 9.72727 7.45455 9.72727C7.69565 9.72727 7.92688 9.63149 8.09737 9.46101C8.26786 9.29052 8.36364 9.05929 8.36364 8.81818V8.36364H8.81818C9.05929 8.36364 9.29052 8.26786 9.46101 8.09737C9.63149 7.92688 9.72727 7.69565 9.72727 7.45455C9.72727 7.21344 9.63149 6.98221 9.46101 6.81172C9.29052 6.64123 9.05929 6.54545 8.81818 6.54545H8.36364V6.09091C8.36364 5.8498 8.26786 5.61857 8.09737 5.44809C7.92688 5.2776 7.69565 5.18182 7.45455 5.18182C7.21344 5.18182 6.98221 5.2776 6.81172 5.44809C6.64123 5.61857 6.54545 5.8498 6.54545 6.09091V6.54545H6.09091C5.8498 6.54545 5.61857 6.64123 5.44809 6.81172C5.2776 6.98221 5.18182 7.21344 5.18182 7.45455C5.18182 7.69565 5.2776 7.92688 5.44809 8.09737C5.61857 8.26786 5.8498 8.36364 6.09091 8.36364ZM5.52727 18.4727C5.6976 18.642 5.92801 18.7371 6.16818 18.7371C6.40835 18.7371 6.63876 18.642 6.80909 18.4727L7.45455 17.8273L8.1 18.4727C8.27033 18.642 8.50074 18.7371 8.74091 18.7371C8.98108 18.7371 9.21149 18.642 9.38182 18.4727C9.55114 18.3024 9.64617 18.072 9.64617 17.8318C9.64617 17.5917 9.55114 17.3612 9.38182 17.1909L8.73636 16.5455L9.38182 15.9C9.53075 15.7261 9.60858 15.5024 9.59974 15.2736C9.5909 15.0448 9.49605 14.8278 9.33415 14.6659C9.17224 14.5039 8.95521 14.4091 8.72641 14.4003C8.49762 14.3914 8.27391 14.4692 8.1 14.6182L7.45455 15.2636L6.80909 14.6182C6.63518 14.4692 6.41148 14.3914 6.18268 14.4003C5.95388 14.4091 5.73685 14.5039 5.57494 14.6659C5.41304 14.8278 5.31819 15.0448 5.30935 15.2736C5.30052 15.5024 5.37834 15.7261 5.52727 15.9L6.17273 16.5455L5.52727 17.1909C5.35795 17.3612 5.26292 17.5917 5.26292 17.8318C5.26292 18.072 5.35795 18.3024 5.52727 18.4727ZM19.2727 2H4.72727C4.00396 2 3.31026 2.28734 2.7988 2.7988C2.28734 3.31026 2 4.00396 2 4.72727V19.2727C2 19.996 2.28734 20.6897 2.7988 21.2012C3.31026 21.7127 4.00396 22 4.72727 22H19.2727C19.996 22 20.6897 21.7127 21.2012 21.2012C21.7127 20.6897 22 19.996 22 19.2727V4.72727C22 4.00396 21.7127 3.31026 21.2012 2.7988C20.6897 2.28734 19.996 2 19.2727 2ZM11.0909 20.1818H4.72727C4.48617 20.1818 4.25494 20.086 4.08445 19.9156C3.91396 19.7451 3.81818 19.5138 3.81818 19.2727V12.9091H11.0909V20.1818ZM11.0909 11.0909H3.81818V4.72727C3.81818 4.48617 3.91396 4.25494 4.08445 4.08445C4.25494 3.91396 4.48617 3.81818 4.72727 3.81818H11.0909V11.0909ZM20.1818 19.2727C20.1818 19.5138 20.086 19.7451 19.9156 19.9156C19.7451 20.086 19.5138 20.1818 19.2727 20.1818H12.9091V12.9091H20.1818V19.2727ZM20.1818 11.0909H12.9091V3.81818H19.2727C19.5138 3.81818 19.7451 3.91396 19.9156 4.08445C20.086 4.25494 20.1818 4.48617 20.1818 4.72727V11.0909ZM15.1818 16.0909H17.9091C18.1502 16.0909 18.3814 15.9951 18.5519 15.8246C18.7224 15.6542 18.8182 15.4229 18.8182 15.1818C18.8182 14.9407 18.7224 14.7095 18.5519 14.539C18.3814 14.3685 18.1502 14.2727 17.9091 14.2727H15.1818C14.9407 14.2727 14.7095 14.3685 14.539 14.539C14.3685 14.7095 14.2727 14.9407 14.2727 15.1818C14.2727 15.4229 14.3685 15.6542 14.539 15.8246C14.7095 15.9951 14.9407 16.0909 15.1818 16.0909ZM17.9091 6.54545H15.1818C14.9407 6.54545 14.7095 6.64123 14.539 6.81172C14.3685 6.98221 14.2727 7.21344 14.2727 7.45455C14.2727 7.69565 14.3685 7.92688 14.539 8.09737C14.7095 8.26786 14.9407 8.36364 15.1818 8.36364H17.9091C18.1502 8.36364 18.3814 8.26786 18.5519 8.09737C18.7224 7.92688 18.8182 7.69565 18.8182 7.45455C18.8182 7.21344 18.7224 6.98221 18.5519 6.81172C18.3814 6.64123 18.1502 6.54545 17.9091 6.54545ZM15.1818 18.8182H17.9091C18.1502 18.8182 18.3814 18.7224 18.5519 18.5519C18.7224 18.3814 18.8182 18.1502 18.8182 17.9091C18.8182 17.668 18.7224 17.4368 18.5519 17.2663C18.3814 17.0958 18.1502 17 17.9091 17H15.1818C14.9407 17 14.7095 17.0958 14.539 17.2663C14.3685 17.4368 14.2727 17.668 14.2727 17.9091C14.2727 18.1502 14.3685 18.3814 14.539 18.5519C14.7095 18.7224 14.9407 18.8182 15.1818 18.8182Z" stroke-width="2" mask="url(#path-1-inside-1_57_12675)"/>
	</symbol>

	<symbol id="car-icon">
		<g clip-path="url(#clip0_5_1943)">
			<mask id="mask0_5_1943" style="mask-type:luminance" maskUnits="userSpaceOnUse" x="0" y="0" width="24" height="24">
				<path d="M23.5 0.5V23.5H0.5V0.5H23.5Z" fill="white" stroke="white"/>
			</mask>
			<g mask="url(#mask0_5_1943)">
				<path d="M4.02051 10.0713L3.43359 10.4229C3.0183 10.6722 2.68361 11.0371 2.47168 11.4727C2.25978 11.9082 2.17915 12.3963 2.23926 12.877L2.99609 18.9375L2.99707 18.9395L3.00098 19.001V20.5H6.11133L6.20605 20.1211L6.51562 18.8789C6.54262 18.7707 6.6055 18.6751 6.69336 18.6064C6.75926 18.5549 6.83635 18.5206 6.91797 18.5068L7.00098 18.5H17.001C17.1123 18.5001 17.2208 18.5379 17.3086 18.6064C17.3962 18.6751 17.4584 18.7709 17.4854 18.8789L17.7959 20.1211L17.8896 20.5H21.001V19C21.001 18.9804 21.0023 18.9606 21.0049 18.9404V18.9375L21.7617 12.8779C21.822 12.3972 21.7412 11.9094 21.5293 11.4736C21.3174 11.0378 20.9839 10.6723 20.5684 10.4229H20.5674L19.9805 10.0713L19.8623 10H4.13965L4.02051 10.0713ZM18.4199 13.0068C18.5505 12.9853 18.6843 13.0168 18.792 13.0938C18.8729 13.1515 18.934 13.2317 18.9688 13.3232L18.9941 13.418C19.0158 13.5485 18.9851 13.6823 18.9082 13.79C18.8311 13.8979 18.7137 13.9714 18.583 13.9932L15.583 14.4932L15.5762 14.4941L15.5684 14.4951C15.5028 14.508 15.4355 14.5078 15.3701 14.4941C15.3046 14.4805 15.2425 14.4541 15.1875 14.416C15.1325 14.3779 15.0856 14.329 15.0498 14.2725C15.014 14.216 14.9895 14.1529 14.9785 14.0869C14.9676 14.0211 14.9698 13.9536 14.9854 13.8887C15.001 13.8236 15.0296 13.7618 15.0693 13.708C15.109 13.6543 15.1594 13.6093 15.2168 13.5752C15.2744 13.5411 15.339 13.5188 15.4053 13.5098L15.4121 13.5088L15.4199 13.5068L18.4199 13.0068ZM5.58203 13.0068L8.56738 13.5039V13.5049C8.69492 13.5301 8.80784 13.6041 8.88184 13.7109C8.95571 13.8178 8.98518 13.949 8.96387 14.0771C8.94252 14.2053 8.87216 14.3203 8.76758 14.3975C8.663 14.4746 8.53208 14.5077 8.40332 14.4902H8.40234L5.41895 13.9932C5.28822 13.9714 5.17179 13.8979 5.09473 13.79C5.03644 13.7085 5.00438 13.6129 5.00098 13.5156L5.00684 13.418C5.01764 13.3533 5.04144 13.291 5.07617 13.2354C5.11081 13.1799 5.15586 13.1318 5.20898 13.0938C5.26243 13.0556 5.32372 13.0285 5.3877 13.0137C5.45147 12.9989 5.51746 12.9961 5.58203 13.0068ZM8.2168 3.5C7.68206 3.4999 7.16161 3.67161 6.73145 3.98926C6.30139 4.30685 5.98441 4.7537 5.82715 5.26465L4.87598 8.35254L4.67676 9H19.3232L19.125 8.35254L18.1748 5.26465C18.0176 4.75377 17.7004 4.30687 17.2705 3.98926C16.8403 3.67158 16.3189 3.4999 15.7842 3.5H8.2168ZM2.00098 19.0312L1.99707 19L1.24707 13.001C1.17779 12.4477 1.24182 11.8859 1.43359 11.3623C1.62537 10.8388 1.93939 10.3688 2.34961 9.99121L2.88184 9.5L2.23438 9.17578L0.791992 8.4541C0.67777 8.39251 0.59198 8.28872 0.552734 8.16504C0.513556 8.04115 0.523924 7.90625 0.582031 7.79004C0.640148 7.67388 0.741684 7.58497 0.864258 7.54199C0.985445 7.4996 1.11844 7.50481 1.23535 7.55762L3.16895 8.52539L3.69727 8.78906L3.87012 8.22461L4.87109 4.9707C5.09117 4.25533 5.53567 3.62928 6.1377 3.18457C6.73969 2.74 7.46843 2.50004 8.2168 2.5H15.7842C16.5327 2.50004 17.2622 2.73983 17.8643 3.18457C18.4662 3.62926 18.9098 4.25539 19.1299 4.9707L20.1318 8.22559L20.3057 8.78906L20.833 8.52539L22.7637 7.55957C22.8815 7.50525 23.0162 7.49905 23.1387 7.54199C23.2611 7.58498 23.3618 7.67402 23.4199 7.79004C23.478 7.90625 23.4894 8.04115 23.4502 8.16504C23.411 8.2888 23.3233 8.39248 23.209 8.4541L21.7656 9.17676L21.1182 9.50098L21.6514 9.99219C22.0614 10.3698 22.3757 10.8399 22.5674 11.3633C22.7351 11.8213 22.805 12.3087 22.7734 12.7939L22.7539 13.002L22.0049 19L22.001 19.0312V20C22.001 20.3977 21.8427 20.7793 21.5615 21.0605C21.2803 21.3418 20.8987 21.4999 20.501 21.5H18.2803C17.9459 21.4998 17.6209 21.3884 17.3574 21.1826C17.1267 21.0024 16.9551 20.7588 16.8613 20.4834L16.8262 20.3633L16.7061 19.8799L16.6123 19.5H7.38965L7.29492 19.8799L7.1748 20.3652C7.09348 20.6891 6.90676 20.9771 6.64355 21.1826C6.37999 21.3884 6.05506 21.4999 5.7207 21.5H3.50098C3.10323 21.5 2.72172 21.3418 2.44043 21.0605C2.15913 20.7792 2.00098 20.3978 2.00098 20V19.0312Z"/>
			</g>
		</g>
		<defs>
			<clipPath id="clip0_5_1943">
				<rect width="24" height="24" fill="white"/>
			</clipPath>
		</defs>
	</symbol>

	<symbol id="user-icon">
		<path d="M20 21V19C20 17.9391 19.5786 16.9217 18.8284 16.1716C18.0783 15.4214 17.0609 15 16 15H8C6.93913 15 5.92172 15.4214 5.17157 16.1716C4.42143 16.9217 4 17.9391 4 19V21"  stroke-width="2" stroke-linecap="round" stroke-linejoin="round"/>
		<path d="M12 11C14.2091 11 16 9.20914 16 7C16 4.79086 14.2091 3 12 3C9.79086 3 8 4.79086 8 7C8 9.20914 9.79086 11 12 11Z"  stroke-width="2" stroke-linecap="round" stroke-linejoin="round"/>
	</symbol>

	<symbol id="catalog-icon">
		<path d="M2 3H8C9.06087 3 10.0783 3.42143 10.8284 4.17157C11.5786 4.92172 12 5.93913 12 7V21C12 20.2044 11.6839 19.4413 11.1213 18.8787C10.5587 18.3161 9.79565 18 9 18H2V3Z"  stroke-width="2" stroke-linecap="round" stroke-linejoin="round"/>
		<path d="M22 3H16C14.9391 3 13.9217 3.42143 13.1716 4.17157C12.4214 4.92172 12 5.93913 12 7V21C12 20.2044 12.3161 19.4413 12.8787 18.8787C13.4413 18.3161 14.2044 18 15 18H22V3Z"  stroke-width="2" stroke-linecap="round" stroke-linejoin="round"/>
	</symbol>

	<symbol id="discount-icon">
		<path d="M9.46777 3.53809C10.873 2.14816 13.0465 2.15392 14.4463 3.55371C14.9371 4.04449 15.5634 4.2998 16.2002 4.2998C18.1239 4.29991 19.7001 5.8761 19.7002 7.7998C19.7002 8.43658 19.9555 9.06293 20.4463 9.55371L20.4521 9.55957L20.458 9.56445C21.845 10.8647 21.8458 13.1217 20.3691 14.4248L20.3311 14.459L20.2998 14.5C19.9487 14.9682 19.7002 15.5711 19.7002 16.2002C19.7001 18.1239 18.1239 19.7001 16.2002 19.7002C15.5634 19.7002 14.9371 19.9555 14.4463 20.4463L14.4346 20.458L14.4238 20.4707C13.8357 21.1428 12.8837 21.5 12 21.5C11.1326 21.5 10.2462 21.1516 9.52832 20.5234C9.04127 20.0483 8.42613 19.7998 7.7998 19.7998C5.87604 19.7997 4.2998 18.2236 4.2998 16.2998C4.29975 15.6632 4.04425 15.0376 3.55371 14.5469C2.14897 13.1421 2.14897 10.9584 3.55371 9.55371C4.04449 9.06293 4.2998 8.43659 4.2998 7.7998C4.29991 5.8761 5.8761 4.29991 7.7998 4.2998C8.40676 4.2998 9.05232 4.0622 9.46777 3.53809ZM12 3.5C11.3632 3.5 10.7369 3.75532 10.2461 4.24609L10.2344 4.25781L10.2236 4.27051C9.63141 4.94733 8.77633 5.2998 7.7998 5.2998C6.42382 5.29991 5.29991 6.42382 5.2998 7.7998C5.2998 8.66302 4.95532 9.53687 4.24609 10.2461C3.25083 11.2414 3.25083 12.7586 4.24609 13.7539L4.25781 13.7656L4.27051 13.7764C4.94733 14.3686 5.2998 15.2237 5.2998 16.2002C5.29991 17.5762 6.42382 18.7001 7.7998 18.7002C8.66302 18.7002 9.53687 19.0447 10.2461 19.7539C11.2414 20.7492 12.7586 20.7492 13.7539 19.7539L13.7656 19.7422L13.7764 19.7295C14.3686 19.0527 15.2237 18.7002 16.2002 18.7002C17.5762 18.7001 18.7001 17.5762 18.7002 16.2002C18.7002 15.337 19.0447 14.4631 19.7539 13.7539C20.7492 12.7586 20.7492 11.2414 19.7539 10.2461L19.7422 10.2344L19.7295 10.2236L19.6064 10.1094C19.01 9.52389 18.7002 8.71531 18.7002 7.7998C18.7001 6.42382 17.5762 5.29991 16.2002 5.2998C15.337 5.2998 14.4631 4.95532 13.7539 4.24609C13.2631 3.75532 12.6368 3.5 12 3.5Z"/>
		<path d="M14 13.5C14.2761 13.5 14.5 13.7239 14.5 14C14.5 14.2761 14.2761 14.5 14 14.5C13.7239 14.5 13.5 14.2761 13.5 14C13.5 13.7239 13.7239 13.5 14 13.5Z"/>
		<path d="M10 11C10.5523 11 11 10.5523 11 10C11 9.44772 10.5523 9 10 9C9.44772 9 9 9.44772 9 10C9 10.5523 9.44772 11 10 11Z" fill="#6A33CF"/>
		<path d="M13.3 9.3L9.3 13.3C8.9 13.7 8.9 14.3 9.3 14.7C9.5 14.9 9.7 15 10 15C10.3 15 10.5 14.9 10.7 14.7L14.7 10.7C15.1 10.3 15.1 9.7 14.7 9.3C14.3 8.9 13.7 8.9 13.3 9.3Z" fill="#6A33CF"/>
	</symbol>

	<symbol id="settings-icon">
		<g clip-path="url(#clip0_56_2288)">
			<path d="M12 15C13.6569 15 15 13.6569 15 12C15 10.3431 13.6569 9 12 9C10.3431 9 9 10.3431 9 12C9 13.6569 10.3431 15 12 15Z" stroke="#6A33CF" stroke-width="2" stroke-linecap="round" stroke-linejoin="round"/>
			<path d="M19.4 15C19.2669 15.3016 19.2272 15.6362 19.286 15.9606C19.3448 16.285 19.4995 16.5843 19.73 16.82L19.79 16.88C19.976 17.0657 20.1235 17.2863 20.2241 17.5291C20.3248 17.7719 20.3766 18.0322 20.3766 18.295C20.3766 18.5578 20.3248 18.8181 20.2241 19.0609C20.1235 19.3037 19.976 19.5243 19.79 19.71C19.6043 19.896 19.3837 20.0435 19.1409 20.1441C18.8981 20.2448 18.6378 20.2966 18.375 20.2966C18.1122 20.2966 17.8519 20.2448 17.6091 20.1441C17.3663 20.0435 17.1457 19.896 16.96 19.71L16.9 19.65C16.6643 19.4195 16.365 19.2648 16.0406 19.206C15.7162 19.1472 15.3816 19.1869 15.08 19.32C14.7842 19.4468 14.532 19.6572 14.3543 19.9255C14.1766 20.1938 14.0813 20.5082 14.08 20.83V21C14.08 21.5304 13.8693 22.0391 13.4942 22.4142C13.1191 22.7893 12.6104 23 12.08 23C11.5496 23 11.0409 22.7893 10.6658 22.4142C10.2907 22.0391 10.08 21.5304 10.08 21V20.91C10.0723 20.579 9.96512 20.258 9.77251 19.9887C9.5799 19.7194 9.31074 19.5143 9 19.4C8.69838 19.2669 8.36381 19.2272 8.03941 19.286C7.71502 19.3448 7.41568 19.4995 7.18 19.73L7.12 19.79C6.93425 19.976 6.71368 20.1235 6.47088 20.2241C6.22808 20.3248 5.96783 20.3766 5.705 20.3766C5.44217 20.3766 5.18192 20.3248 4.93912 20.2241C4.69632 20.1235 4.47575 19.976 4.29 19.79C4.10405 19.6043 3.95653 19.3837 3.85588 19.1409C3.75523 18.8981 3.70343 18.6378 3.70343 18.375C3.70343 18.1122 3.75523 17.8519 3.85588 17.6091C3.95653 17.3663 4.10405 17.1457 4.29 16.96L4.35 16.9C4.58054 16.6643 4.73519 16.365 4.794 16.0406C4.85282 15.7162 4.81312 15.3816 4.68 15.08C4.55324 14.7842 4.34276 14.532 4.07447 14.3543C3.80618 14.1766 3.49179 14.0813 3.17 14.08H3C2.46957 14.08 1.96086 13.8693 1.58579 13.4942C1.21071 13.1191 1 12.6104 1 12.08C1 11.5496 1.21071 11.0409 1.58579 10.6658C1.96086 10.2907 2.46957 10.08 3 10.08H3.09C3.42099 10.0723 3.742 9.96512 4.0113 9.77251C4.28059 9.5799 4.48572 9.31074 4.6 9C4.73312 8.69838 4.77282 8.36381 4.714 8.03941C4.65519 7.71502 4.50054 7.41568 4.27 7.18L4.21 7.12C4.02405 6.93425 3.87653 6.71368 3.77588 6.47088C3.67523 6.22808 3.62343 5.96783 3.62343 5.705C3.62343 5.44217 3.67523 5.18192 3.77588 4.93912C3.87653 4.69632 4.02405 4.47575 4.21 4.29C4.39575 4.10405 4.61632 3.95653 4.85912 3.85588C5.10192 3.75523 5.36217 3.70343 5.625 3.70343C5.88783 3.70343 6.14808 3.75523 6.39088 3.85588C6.63368 3.95653 6.85425 4.10405 7.04 4.29L7.1 4.35C7.33568 4.58054 7.63502 4.73519 7.95941 4.794C8.28381 4.85282 8.61838 4.81312 8.92 4.68H9C9.29577 4.55324 9.54802 4.34276 9.72569 4.07447C9.90337 3.80618 9.99872 3.49179 10 3.17V3C10 2.46957 10.2107 1.96086 10.5858 1.58579C10.9609 1.21071 11.4696 1 12 1C12.5304 1 13.0391 1.21071 13.4142 1.58579C13.7893 1.96086 14 2.46957 14 3V3.09C14.0013 3.41179 14.0966 3.72618 14.2743 3.99447C14.452 4.26276 14.7042 4.47324 15 4.6C15.3016 4.73312 15.6362 4.77282 15.9606 4.714C16.285 4.65519 16.5843 4.50054 16.82 4.27L16.88 4.21C17.0657 4.02405 17.2863 3.87653 17.5291 3.77588C17.7719 3.67523 18.0322 3.62343 18.295 3.62343C18.5578 3.62343 18.8181 3.67523 19.0609 3.77588C19.3037 3.87653 19.5243 4.02405 19.71 4.21C19.896 4.39575 20.0435 4.61632 20.1441 4.85912C20.2448 5.10192 20.2966 5.36217 20.2966 5.625C20.2966 5.88783 20.2448 6.14808 20.1441 6.39088C20.0435 6.63368 19.896 6.85425 19.71 7.04L19.65 7.1C19.4195 7.33568 19.2648 7.63502 19.206 7.95941C19.1472 8.28381 19.1869 8.61838 19.32 8.92V9C19.4468 9.29577 19.6572 9.54802 19.9255 9.72569C20.1938 9.90337 20.5082 9.99872 20.83 10H21C21.5304 10 22.0391 10.2107 22.4142 10.5858C22.7893 10.9609 23 11.4696 23 12C23 12.5304 22.7893 13.0391 22.4142 13.4142C22.0391 13.7893 21.5304 14 21 14H20.91C20.5882 14.0013 20.2738 14.0966 20.0055 14.2743C19.7372 14.452 19.5268 14.7042 19.4 15V15Z" stroke-width="2" stroke-linecap="round" stroke-linejoin="round"/>
		</g>
		<defs>
			<clipPath id="clip0_56_2288">
				<rect width="24" height="24" fill="white"/>
			</clipPath>
		</defs>
	</symbol>

	<symbol id="education-icon">
		<path d="M12.0498 4.5249C12.1147 4.5249 12.1603 4.53914 12.1768 4.54736L12.2021 4.56006L12.2295 4.56982L23.2295 8.56982L23.2422 8.57471C23.2623 8.58166 23.3319 8.6218 23.4014 8.72217C23.4678 8.81815 23.4999 8.92047 23.5 8.99951C23.5 9.17619 23.3502 9.37165 23.1787 9.41455L23.1533 9.42139L23.1289 9.43018L12.1289 13.4302L12.0244 13.4683L12 13.4927L11.9756 13.4683L11.8711 13.4302L0.871094 9.43018L0.84668 9.42139L0.821289 9.41455L0.757812 9.39209C0.614368 9.32347 0.5 9.15402 0.5 8.99951C0.50022 8.82295 0.649929 8.62835 0.821289 8.58545L0.84668 8.57861L0.871094 8.56982L11.8711 4.56982L11.8975 4.56006L11.9238 4.54736C11.9403 4.53915 11.9851 4.52493 12.0498 4.5249ZM11.8311 5.62939L3.73145 8.52881L2.41699 8.99951L3.73145 9.47021L11.8311 12.3706L12 12.4312L12.1689 12.3706L20.2686 9.47021L21.583 8.99951L20.2686 8.52881L12.1689 5.62939L12 5.56885L11.8311 5.62939Z"/>
		<path d="M16.8799 10.6172C17.1148 10.4921 17.4184 10.5719 17.5898 10.7891C18.8167 12.7851 19.5 15.5757 19.5 18.9004C19.4999 19.1562 19.4278 19.2976 19.3594 19.3711C19.2941 19.4411 19.1852 19.5 19 19.5H12C11.8136 19.5 11.6975 19.4397 11.6289 19.3711C11.5603 19.3025 11.5 19.1863 11.5 19C11.5 18.8137 11.5603 18.6975 11.6289 18.6289C11.6975 18.5603 11.8137 18.5 12 18.5H18.5195L18.5 17.9805C18.3978 15.3249 17.7844 13.0361 16.7285 11.3428C16.588 11.1083 16.6628 10.7953 16.8799 10.6172Z"/>
		<path d="M12 20H5C4.4 20 4 19.6 4 19C4 15.6 4.7 12.7 6 10.6C6.3 10.1 6.9 10 7.4 10.3C7.9 10.6 8 11.2 7.7 11.7C6.7 13.3 6.1 15.5 6 18.1H12C12.6 18.1 13 18.5 13 19.1C13 19.7 12.6 20 12 20ZM22 20C21.4 20 21 19.6 21 19V9C21 8.4 21.4 8 22 8C22.6 8 23 8.4 23 9V19C23 19.6 22.6 20 22 20Z" />
	</symbol>

	<symbol id="log-file-icon">
		<path d="M4.58789 1.02637H14.8252C14.933 1.02636 15.04 1.04757 15.1396 1.08887C15.2393 1.13023 15.3301 1.19121 15.4062 1.26758L20.7344 6.61328C20.8876 6.76706 20.9736 6.97528 20.9736 7.19238V12.4619H19.332V8.01465H15.5664C14.7049 8.01457 13.9854 7.31188 13.9854 6.45117V2.66797H4.66797V20.9326H19.332V16.4326H20.9736V21.0117C20.9736 21.8727 20.2731 22.5731 19.4121 22.5732H4.58789C3.72691 22.5731 3.02637 21.8727 3.02637 21.0117V2.58789C3.02655 1.72703 3.72703 1.02655 4.58789 1.02637ZM15.627 6.37305H18.1768L18.1318 6.32812L15.6719 3.87793L15.627 3.83301V6.37305Z"  stroke-width="0.0529412"/>
		<path d="M11.3047 10.8174C11.9517 10.8174 12.5 11.0673 12.8867 11.4951C13.2736 11.9232 13.4999 12.5315 13.5 13.25C13.5 14.1239 13.216 14.7541 12.793 15.165C12.3696 15.5763 11.8049 15.7705 11.2422 15.7705C10.5951 15.7705 10.0469 15.5199 9.66016 15.0908C9.27325 14.6616 9.0459 14.0515 9.0459 13.3311C9.04599 12.5886 9.27983 11.96 9.67773 11.5176C10.0755 11.0755 10.6394 10.8174 11.3047 10.8174ZM16.5508 10.8428C17.0412 10.8428 17.5329 10.9459 17.9648 11.1777L17.6631 12.2031C17.3183 12.0196 16.9319 11.9093 16.5391 11.9092C16.1091 11.9092 15.7634 12.038 15.5254 12.2773C15.2875 12.5168 15.1602 12.864 15.1602 13.2939C15.1602 13.7257 15.2838 14.0739 15.5127 14.3145C15.7418 14.5552 16.0733 14.6855 16.4824 14.6855C16.6638 14.6855 16.7683 14.6705 16.8857 14.6572L16.9121 14.6543V13.9121H16.0293V12.9121H18.0293V15.4248C17.5197 15.6197 16.9783 15.7461 16.4326 15.7461C15.6818 15.7461 15.0996 15.5352 14.6494 15.1055C14.2179 14.6887 13.9688 14.0383 13.9688 13.3193C13.9725 12.5769 14.2342 11.9584 14.6855 11.5254C15.1369 11.0924 15.7799 10.8428 16.5508 10.8428ZM7.14746 10.9121V14.6172H8.91211V15.6768H5.9707V10.9121H7.14746ZM11.2793 11.8721C10.8937 11.8722 10.6317 12.0707 10.4678 12.3506C10.3048 12.6291 10.2383 12.9893 10.2383 13.3193C10.2383 13.6526 10.3176 14.0003 10.4863 14.2656C10.6557 14.532 10.916 14.7158 11.2734 14.7158C11.6349 14.7158 11.8963 14.5319 12.0664 14.2598C12.2357 13.9888 12.3154 13.6304 12.3154 13.2754C12.3154 12.9405 12.2352 12.5908 12.0664 12.3242C11.897 12.0568 11.6367 11.8721 11.2793 11.8721Z"  stroke-width="0.0588235"/>
	</symbol>

	<symbol id="list-icon">
		<path d="M8 6H21" stroke-width="2" stroke-linecap="round" stroke-linejoin="round"/>
		<path d="M8 12H21" stroke-width="2" stroke-linecap="round" stroke-linejoin="round"/>
		<path d="M8 18H21" stroke-width="2" stroke-linecap="round" stroke-linejoin="round"/>
		<path d="M3 6H3.01" stroke-width="2" stroke-linecap="round" stroke-linejoin="round"/>
		<path d="M3 12H3.01" stroke-width="2" stroke-linecap="round" stroke-linejoin="round"/>
		<path d="M3 18H3.01" stroke-width="2" stroke-linecap="round" stroke-linejoin="round"/>
	</symbol>

	<symbol id="reset-icon">
		<circle cx="8.0918" cy="8" r="7" stroke-width="2"/>
		<path d="M5.0918 5L11.0918 11" stroke-width="2"/>
		<path d="M11.0918 5L5.0918 11" stroke-width="2"/>
	</symbol>

	<symbol id="burger-button-icon">
		<rect y="2" width="26" height="4" rx="1" />
		<rect y="10" width="26" height="4" rx="1" />
		<rect y="18" width="26" height="4" rx="1" />
	</symbol>

	<symbol id="toggle-arrow-icon">
		<path d="M6 9.5L12 14.5L18 9.5" stroke-width="3" stroke-linecap="round"/>
	</symbol>

	<symbol id="start-delay-icon">
		<path d="M9.5 12H13.5"  stroke-width="1.5" stroke-linecap="round"/>
		<path d="M11.6211 10L13.599 11.9779L11.6221 13.9548"  stroke-width="1.5" stroke-linecap="round"/>
		<path d="M12.5 18H15.5C16.0523 18 16.5 17.5523 16.5 17V7C16.5 6.44772 16.0523 6 15.5 6H12.5"  stroke-width="1.5" stroke-linecap="round"/>
	</symbol>

	<symbol id="delay-issuance-icon">
		<path d="M11.5 12H15.5"  stroke-width="1.5" stroke-linecap="round"/>
		<path d="M13.6211 10L15.599 11.9779L13.6221 13.9548"  stroke-width="1.5" stroke-linecap="round"/>
		<path d="M12.5 18H9.5C8.94772 18 8.5 17.5523 8.5 17V7C8.5 6.44772 8.94772 6 9.5 6H12.5"  stroke-width="1.5" stroke-linecap="round"/>
	</symbol>

	<symbol id="check-flag">
		<path d="M1.83398 5.36266L5.16732 8.49992L11.0007 1.83325" stroke-width="2" stroke-linecap="round"/>
	</symbol>

	<symbol id="clip-icon">
		<path d="M21.4403 11.0499L12.2503 20.2399C11.1244 21.3658 9.59747 21.9983 8.00529 21.9983C6.41311 21.9983 4.88613 21.3658 3.76029 20.2399C2.63445 19.1141 2.00195 17.5871 2.00195 15.9949C2.00195 14.4027 2.63445 12.8758 3.76029 11.7499L12.9503 2.55992C13.7009 1.80936 14.7188 1.3877 15.7803 1.3877C16.8417 1.3877 17.8597 1.80936 18.6103 2.55992C19.3609 3.31048 19.7825 4.32846 19.7825 5.38992C19.7825 6.45138 19.3609 7.46936 18.6103 8.21992L9.41029 17.4099C9.03501 17.7852 8.52602 17.996 7.99529 17.996C7.46456 17.996 6.95557 17.7852 6.58029 17.4099C6.20501 17.0346 5.99418 16.5256 5.99418 15.9949C5.99418 15.4642 6.20501 14.9552 6.58029 14.5799L15.0703 6.09992" stroke-width="2" stroke-linecap="round" stroke-linejoin="round"/>
	</symbol>

	<symbol id="report-icon">
		<path d="M14 2H6C5.46957 2 4.96086 2.21071 4.58579 2.58579C4.21071 2.96086 4 3.46957 4 4V20C4 20.5304 4.21071 21.0391 4.58579 21.4142C4.96086 21.7893 5.46957 22 6 22H18C18.5304 22 19.0391 21.7893 19.4142 21.4142C19.7893 21.0391 20 20.5304 20 20V8L14 2Z" stroke-width="2" stroke-linecap="round" stroke-linejoin="round"/>
		<path d="M14 2V8H20" stroke-width="2" stroke-linecap="round" stroke-linejoin="round"/>
		<path d="M16 13H8" stroke-width="2" stroke-linecap="round" stroke-linejoin="round"/>
		<path d="M16 17H8" stroke-width="2" stroke-linecap="round" stroke-linejoin="round"/>
		<path d="M10 9H9H8" stroke-width="2" stroke-linecap="round" stroke-linejoin="round"/>
	</symbol>

	<symbol id="shield-icon">
			<path d="M12 2L4 7V12C4 17 12 22 12 22C12 22 20 17 20 12V7L12 2Z" 
						stroke-width="2" stroke-linecap="round" stroke-linejoin="round"/>
			<path d="M12 15V12" stroke-width="2" stroke-linecap="round" stroke-linejoin="round"/>
			<path d="M12 9H12.01" stroke-width="2" stroke-linecap="round" stroke-linejoin="round"/>
	</symbol>

	<symbol id="shield-list-icon">
		<path d="M21.02 12.2499C20.35 12.2299 19.36 12.0699 18.45 11.3999C18.13 11.1599 17.85 10.8799 17.6 10.5499C17.32 10.1699 16.68 10.1699 16.4 10.5499C16.16 10.8799 15.87 11.1599 15.55 11.3999C14.64 12.0699 13.65 12.2399 12.98 12.2499C12.57 12.2499 12.25 12.5899 12.25 12.9999V15.9999C12.25 17.4899 12.96 18.9099 14.15 19.7999L16.55 21.5999C16.68 21.6999 16.84 21.7499 17 21.7499C17.16 21.7499 17.32 21.6999 17.45 21.5999L19.85 19.7999C21.04 18.9099 21.75 17.4899 21.75 15.9999V12.9999C21.75 12.5899 21.42 12.2599 21.02 12.2499ZM20.25 15.9999C20.25 17.0199 19.76 17.9899 18.95 18.5999L17 20.0599L15.05 18.5999C14.24 17.9899 13.75 17.0199 13.75 15.9999V13.6899C14.56 13.5799 15.53 13.2899 16.45 12.5999C16.64 12.4599 16.83 12.2999 17 12.1299C17.17 12.2999 17.36 12.4599 17.55 12.5999C18.47 13.2799 19.44 13.5799 20.25 13.6899V15.9999Z"/>
		<path d="M11 18.25H6C5.31 18.25 4.75 17.69 4.75 17V5C4.75 4.31 5.31 3.75 6 3.75H16C16.69 3.75 17.25 4.31 17.25 5V8C17.25 8.41 17.59 8.75 18 8.75C18.41 8.75 18.75 8.41 18.75 8V5C18.75 3.48 17.52 2.25 16 2.25H6C4.48 2.25 3.25 3.48 3.25 5V17C3.25 18.52 4.48 19.75 6 19.75H11C11.41 19.75 11.75 19.41 11.75 19C11.75 18.59 11.41 18.25 11 18.25Z"/>
		<path d="M7 6.25C6.59 6.25 6.25 6.59 6.25 7C6.25 7.41 6.59 7.75 7 7.75H14C14.41 7.75 14.75 7.41 14.75 7C14.75 6.59 14.41 6.25 14 6.25H7ZM11 10.25H7C6.59 10.25 6.25 10.59 6.25 11C6.25 11.41 6.59 11.75 7 11.75H11C11.41 11.75 11.75 11.41 11.75 11C11.75 10.59 11.41 10.25 11 10.25ZM9 15.75C9.41 15.75 9.75 15.41 9.75 15C9.75 14.59 9.41 14.25 9 14.25H7C6.59 14.25 6.25 14.59 6.25 15C6.25 15.41 6.59 15.75 7 15.75H9Z"/>
	</symbol>

	<symbol id="file-plus-icon">
		<path d="M14 2H6C5.46957 2 4.96086 2.21071 4.58579 2.58579C4.21071 2.96086 4 3.46957 4 4V20C4 20.5304 4.21071 21.0391 4.58579 21.4142C4.96086 21.7893 5.46957 22 6 22H18C18.5304 22 19.0391 21.7893 19.4142 21.4142C19.7893 21.0391 20 20.5304 20 20V8L14 2Z" stroke-width="2" stroke-linecap="round" stroke-linejoin="round"/>
		<path d="M14 2V8H20" stroke-width="2" stroke-linecap="round" stroke-linejoin="round"/>
		<path d="M12 18V12" stroke-width="2" stroke-linecap="round" stroke-linejoin="round"/>
		<path d="M9 15H15" stroke-width="2" stroke-linecap="round" stroke-linejoin="round"/>
	</symbol>

	<symbol id="tool-icon">
		<path d="M14.7003 6.30001C14.5171 6.48694 14.4145 6.73826 14.4145 7.00001C14.4145 7.26176 14.5171 7.51308 14.7003 7.70001L16.3003 9.30001C16.4873 9.48324 16.7386 9.58587 17.0003 9.58587C17.2621 9.58587 17.5134 9.48324 17.7003 9.30001L21.4703 5.53001C21.9732 6.6412 22.1254 7.87924 21.9068 9.07916C21.6882 10.2791 21.1091 11.3839 20.2466 12.2463C19.3842 13.1087 18.2794 13.6878 17.0795 13.9065C15.8796 14.1251 14.6415 13.9728 13.5303 13.47L6.62034 20.38C6.22252 20.7778 5.68295 21.0013 5.12034 21.0013C4.55773 21.0013 4.01817 20.7778 3.62034 20.38C3.22252 19.9822 2.99902 19.4426 2.99902 18.88C2.99902 18.3174 3.22252 17.7778 3.62034 17.38L10.5303 10.47C10.0275 9.35882 9.87526 8.12078 10.0939 6.92087C10.3125 5.72095 10.8916 4.61617 11.7541 3.75373C12.6165 2.8913 13.7213 2.31218 14.9212 2.09355C16.1211 1.87493 17.3592 2.02718 18.4703 2.53001L14.7103 6.29001L14.7003 6.30001Z" stroke-width="2" stroke-linecap="round" stroke-linejoin="round"/>
	</symbol>

	<symbol id="pin-icon">
		<path d="M12 2C13.8565 2 15.6374 2.75072 16.9502 4.08691C18.2628 5.42309 19 7.23545 19 9.125C19 14.2704 12.0013 20.9988 12 21C11.9983 20.9984 5 14.2702 5 9.125C5 7.23545 5.7372 5.42309 7.0498 4.08691C8.36256 2.75072 10.1435 2 12 2ZM12 6C10.3431 6 9 7.34315 9 9C9 10.6569 10.3431 12 12 12C13.6569 12 15 10.6569 15 9C15 7.34315 13.6569 6 12 6Z"/>
	</symbol>

	<symbol id="play-icon">
		<path d="M5.5 17.0093V6.99072C5.5 5.44523 7.17815 4.48374 8.51144 5.26533L17.0567 10.2746C18.3748 11.0473 18.3748 12.9527 17.0567 13.7254L8.51144 18.7347C7.17815 19.5163 5.5 18.5548 5.5 17.0093Z"/>
	</symbol>

	<symbol id="person-icon">
		<path d="M12 2C9.63052 2 7.70968 3.97104 7.70968 6.40244C7.70968 8.83384 9.63052 10.8049 12 10.8049C14.3695 10.8049 16.2903 8.83384 16.2903 6.40244C16.2903 3.97104 14.3695 2 12 2ZM9.29032 12.1951C6.92085 12.1951 5 14.1661 5 16.5976C5 19.029 6.92085 21 9.29032 21H14.7097C17.0792 21 19 19.029 19 16.5976C19 14.1661 17.0792 12.1951 14.7097 12.1951H9.29032Z"/>
	</symbol>

	<symbol id="finish-icon">
		<path opacity="0.99" fill-rule="evenodd" clip-rule="evenodd" d="M4.89016 3.00292C5.2811 2.99512 5.67171 3.00294 6.06203 3.02636C6.83847 3.32141 7.08846 3.86048 6.81203 4.64355C8.4993 4.6826 10.1868 4.70604 11.8745 4.71386C12.6446 4.751 13.1523 5.13381 13.398 5.8623C13.4486 6.12709 13.4955 6.39274 13.5386 6.65917C13.562 6.68261 13.5855 6.70605 13.6089 6.72949C15.7787 6.79103 17.9505 6.8223 20.1245 6.82324C20.4402 6.98847 20.5574 7.24628 20.4761 7.59667C20.0777 8.7295 19.6792 9.86228 19.2808 10.9951C19.6792 12.1279 20.0777 13.2607 20.4761 14.3935C20.5477 14.7582 20.4149 15.016 20.0777 15.167C17.5777 15.1983 15.0776 15.1983 12.5777 15.167C12.4488 15.1143 12.3316 15.044 12.2261 14.956C12.1036 14.7386 12.0255 14.5042 11.9917 14.2529C11.9566 14.2236 11.9175 14.2001 11.8745 14.1826C10.0621 14.1592 8.2496 14.1513 6.43703 14.1592C6.43703 16.6904 6.43703 19.2217 6.43703 21.7529C5.79639 21.7529 5.1558 21.7529 4.51516 21.7529C4.52297 16.1904 4.51516 10.6279 4.49172 5.06542C4.04036 4.71406 3.89973 4.26093 4.06985 3.70605C4.24773 3.35606 4.52117 3.12168 4.89016 3.00292Z"/>
	</symbol>

	<symbol id="trash-icon">
		<path d="M5 6.19995H6.6H19.4" stroke-width="1.2" stroke-linecap="round" stroke-linejoin="round"/>
		<path d="M17.7996 6.2V17.4C17.7996 17.8243 17.631 18.2313 17.331 18.5314C17.0309 18.8314 16.624 19 16.1996 19H8.19961C7.77526 19 7.3683 18.8314 7.06824 18.5314C6.76818 18.2313 6.59961 17.8243 6.59961 17.4V6.2M8.99961 6.2V4.6C8.99961 4.17565 9.16818 3.76869 9.46824 3.46863C9.7683 3.16857 10.1753 3 10.5996 3H13.7996C14.224 3 14.6309 3.16857 14.931 3.46863C15.231 3.76869 15.3996 4.17565 15.3996 4.6V6.2" stroke-width="1.2" stroke-linecap="round" stroke-linejoin="round"/>
		<path d="M10.5996 10.2V15" stroke-width="1.2" stroke-linecap="round" stroke-linejoin="round"/>
		<path d="M13.7998 10.2V15" stroke-width="1.2" stroke-linecap="round" stroke-linejoin="round"/>
	</symbol>

	<symbol id="pie-chart-icon">
		<path d="M21.2104 15.89C20.5742 17.3945 19.5792 18.7202 18.3123 19.7513C17.0454 20.7824 15.5452 21.4874 13.9428 21.8048C12.3405 22.1221 10.6848 22.0421 9.12055 21.5718C7.55627 21.1014 6.13103 20.2551 4.96942 19.1066C3.80782 17.9582 2.94522 16.5427 2.45704 14.9839C1.96886 13.4251 1.86996 11.7705 2.169 10.1646C2.46804 8.55877 3.1559 7.05061 4.17245 5.77202C5.189 4.49342 6.50329 3.4833 8.0004 2.82999" stroke-width="2" stroke-linecap="round" stroke-linejoin="round"/>
		<path d="M22 12C22 10.6868 21.7413 9.38642 21.2388 8.17317C20.7362 6.95991 19.9997 5.85752 19.0711 4.92893C18.1425 4.00035 17.0401 3.26375 15.8268 2.7612C14.6136 2.25866 13.3132 2 12 2V12H22Z" stroke-width="2" stroke-linecap="round" stroke-linejoin="round"/>
	</symbol>

	<symbol id="dollar-icon">
		<path d="M12 1V23" stroke="#6A33CF" stroke-width="2" stroke-linecap="round" stroke-linejoin="round"/>
		<path d="M17 5H9.5C8.57174 5 7.6815 5.36875 7.02513 6.02513C6.36875 6.6815 6 7.57174 6 8.5C6 9.42826 6.36875 10.3185 7.02513 10.9749C7.6815 11.6313 8.57174 12 9.5 12H14.5C15.4283 12 16.3185 12.3687 16.9749 13.0251C17.6313 13.6815 18 14.5717 18 15.5C18 16.4283 17.6313 17.3185 16.9749 17.9749C16.3185 18.6313 15.4283 19 14.5 19H6" stroke-width="2" stroke-linecap="round" stroke-linejoin="round"/>
	</symbol>

	<symbol id="dollar-icon">
		<path d="M12 1V23" stroke="#6A33CF" stroke-width="2" stroke-linecap="round" stroke-linejoin="round"/>
		<path d="M17 5H9.5C8.57174 5 7.6815 5.36875 7.02513 6.02513C6.36875 6.6815 6 7.57174 6 8.5C6 9.42826 6.36875 10.3185 7.02513 10.9749C7.6815 11.6313 8.57174 12 9.5 12H14.5C15.4283 12 16.3185 12.3687 16.9749 13.0251C17.6313 13.6815 18 14.5717 18 15.5C18 16.4283 17.6313 17.3185 16.9749 17.9749C16.3185 18.6313 15.4283 19 14.5 19H6" stroke-width="2" stroke-linecap="round" stroke-linejoin="round"/>
	</symbol>

	<symbol id="clock-icon">
		<path d="M12 22C17.5228 22 22 17.5228 22 12C22 6.47715 17.5228 2 12 2C6.47715 2 2 6.47715 2 12C2 17.5228 6.47715 22 12 22Z" stroke-width="2" stroke-linecap="round" stroke-linejoin="round"/>
		<path d="M12 6V12L16 14" stroke-width="2" stroke-linecap="round" stroke-linejoin="round"/>
	</symbol>

	<symbol id="close-icon">
		<path d="M6 6L18 18" stroke-width="2" stroke-linecap="round"/>
		<path d="M18 6L6 18" stroke-width="2" stroke-linecap="round"/>
	</symbol>

	<symbol id="tire-icon">
		<path d="M12 14.25C12.8284 14.25 13.5 13.5784 13.5 12.75C13.5 11.9216 12.8284 11.25 12 11.25C11.1716 11.25 10.5 11.9216 10.5 12.75C10.5 13.5784 11.1716 14.25 12 14.25Z"  stroke-width="1.5" stroke-miterlimit="10" stroke-linecap="round" stroke-linejoin="round"/>
		<path d="M9.95758 5.60791L12.5931 8.69716C12.8008 8.94391 13.1443 9.02866 13.4496 8.90266L17.1223 7.38166M11.2423 20.1347L13.2321 16.8834C13.4001 16.6029 13.7323 16.4649 14.0496 16.5444L17.7553 17.4369M4.58008 12.5762L8.25283 11.0552C8.55808 10.9292 8.74033 10.6262 8.71333 10.3044L8.39158 6.25591M4.73608 14.3057L8.58433 15.2282C8.90158 15.3077 9.12733 15.5792 9.15508 15.9009L9.45808 19.7289M18.7296 15.8882L16.2373 12.9669C16.0296 12.7202 15.9973 12.3684 16.1653 12.0872L18.2346 8.71366"  stroke-width="1.5" stroke-miterlimit="10" stroke-linecap="round" stroke-linejoin="round"/>
		<path d="M12 20.25C16.1421 20.25 19.5 16.8921 19.5 12.75C19.5 8.60786 16.1421 5.25 12 5.25C7.85786 5.25 4.5 8.60786 4.5 12.75C4.5 16.8921 7.85786 20.25 12 20.25Z"  stroke-width="1.5" stroke-miterlimit="10" stroke-linecap="round" stroke-linejoin="round"/>
		<path d="M19.836 19.7047C21.8092 17.4877 22.875 14.448 22.3793 11.1442C21.6825 6.5062 17.859 2.83195 13.1978 2.3167C6.8625 1.61545 1.5 6.55645 1.5 12.75C1.5 15.4252 2.5155 17.8522 4.164 19.7047C3.426 19.9762 3 20.2905 3 20.625C3 21.6607 7.02975 22.5 12 22.5C16.9702 22.5 21 21.6607 21 20.625C21 20.2905 20.574 19.9762 19.836 19.7047Z"  stroke-width="1.5" stroke-miterlimit="10" stroke-linecap="round" stroke-linejoin="round"/>
	</symbol>

	<symbol id="logo">
		<path d="M8 41.4347V19H16.8512C18.5528 19 20.0024 19.325 21.2001 19.9749C22.3978 20.6176 23.3107 21.5122 23.9387 22.6588C24.5741 23.798 24.8918 25.1126 24.8918 26.6024C24.8918 28.0922 24.5704 29.4067 23.9278 30.546C23.2851 31.6853 22.354 32.5726 21.1344 33.2079C19.9221 33.8433 18.4542 34.161 16.7307 34.161H11.0892V30.3598H15.9639C16.8768 30.3598 17.629 30.2028 18.2205 29.8887C18.8193 29.5674 19.2648 29.1256 19.5569 28.5632C19.8564 27.9936 20.0061 27.34 20.0061 26.6024C20.0061 25.8575 19.8564 25.2075 19.5569 24.6525C19.2648 24.0902 18.8193 23.6556 18.2205 23.3489C17.6217 23.0349 16.8622 22.8779 15.942 22.8779H12.7433V41.4347H8Z"/>
		<path d="M67.8105 41.4347V19H76.6617C78.3633 19 79.813 19.325 81.0107 19.9749C82.2083 20.6176 83.1212 21.5122 83.7493 22.6588C84.3846 23.798 84.7023 25.1126 84.7023 26.6024C84.7023 28.0922 84.381 29.4067 83.7383 30.546C83.0957 31.6853 82.1645 32.5726 80.9449 33.2079C79.7326 33.8433 78.2647 34.161 76.5412 34.161H70.8997V30.3598H75.7744C76.6873 30.3598 77.4395 30.2028 78.0311 29.8887C78.6299 29.5674 79.0754 29.1256 79.3675 28.5632C79.6669 27.9936 79.8166 27.34 79.8166 26.6024C79.8166 25.8575 79.6669 25.2075 79.3675 24.6525C79.0754 24.0902 78.6299 23.6556 78.0311 23.3489C77.4322 23.0349 76.6727 22.8779 75.7525 22.8779H72.5538V41.4347H67.8105Z"/>
		<path d="M32.3359 19H36.9631V41.4503H32.3359V19Z"/>
		<path d="M49.9863 25.0002C49.9863 25.0002 50.8374 24.3892 52.2999 24.398C53.7624 24.4069 54.6135 25.0002 54.6135 25.0002V41.45H49.9863V25.0002Z"/>
		<path d="M42.8184 22.9424V19.0007H59.956V22.9424H42.8184Z"/>
		<path d="M123.814 42C122.082 42 120.423 41.767 118.835 41.3011C117.247 40.814 115.969 40.1892 115 39.4268L116.701 35.5511C117.629 36.2288 118.722 36.7901 119.979 37.2348C121.258 37.6584 122.546 37.8702 123.845 37.8702C124.835 37.8702 125.629 37.7749 126.227 37.5843C126.845 37.3725 127.299 37.0866 127.588 36.7265C127.876 36.3665 128.021 35.9535 128.021 35.4876C128.021 34.8946 127.794 34.4286 127.34 34.0898C126.887 33.7297 126.289 33.4438 125.546 33.232C124.804 32.9991 123.979 32.7873 123.072 32.5967C122.186 32.3849 121.289 32.1308 120.381 31.8343C119.495 31.5378 118.68 31.1565 117.938 30.6906C117.196 30.2247 116.588 29.6105 116.113 28.8481C115.66 28.0856 115.433 27.1114 115.433 25.9254C115.433 24.6547 115.763 23.5005 116.423 22.4627C117.103 21.4038 118.113 20.5672 119.454 19.953C120.814 19.3177 122.515 19 124.557 19C125.918 19 127.258 19.1694 128.577 19.5083C129.897 19.826 131.062 20.3131 132.072 20.9696L130.526 24.8771C129.515 24.2841 128.505 23.8499 127.495 23.5746C126.485 23.2781 125.495 23.1298 124.526 23.1298C123.557 23.1298 122.763 23.2463 122.144 23.4793C121.526 23.7122 121.082 24.0193 120.814 24.4006C120.546 24.7606 120.412 25.1842 120.412 25.6713C120.412 26.2431 120.639 26.709 121.093 27.0691C121.546 27.4079 122.144 27.6832 122.887 27.895C123.629 28.1068 124.443 28.3186 125.33 28.5304C126.237 28.7422 127.134 28.9857 128.021 29.261C128.928 29.5364 129.753 29.907 130.495 30.3729C131.237 30.8389 131.835 31.453 132.289 32.2155C132.763 32.9779 133 33.9415 133 35.1064C133 36.3559 132.66 37.4995 131.979 38.5373C131.299 39.575 130.278 40.4116 128.918 41.047C127.577 41.6823 125.876 42 123.814 42Z"/>
		<path d="M99.5 19C101.774 19 103.998 19.6745 105.889 20.9381C107.78 22.2017 109.254 23.9978 110.125 26.0991C110.995 28.2005 111.223 30.5128 110.779 32.7435C110.335 34.9743 109.24 37.0234 107.632 38.6317C106.023 40.24 103.974 41.3353 101.744 41.779C99.5128 42.2228 97.2005 41.995 95.0991 41.1246C92.9978 40.2542 91.2017 38.7802 89.9381 36.8891C88.6745 34.9979 88 32.7745 88 30.5H92.6C92.6 31.8647 93.0047 33.1987 93.7629 34.3334C94.521 35.4681 95.5987 36.3525 96.8595 36.8748C98.1203 37.397 99.5077 37.5337 100.846 37.2674C102.185 37.0012 103.414 36.344 104.379 35.379C105.344 34.4141 106.001 33.1846 106.267 31.8461C106.534 30.5077 106.397 29.1203 105.875 27.8595C105.353 26.5987 104.468 25.521 103.333 24.7629C102.199 24.0047 100.865 23.6 99.5 23.6V19Z" fill="#6A33CF"/>
	</symbol>

	<symbol id="team-icon">
		<path d="M21.24 12.75C20.7336 12.2481 20.1407 11.8416 19.49 11.55C20.504 10.5918 21.1151 9.2835 21.1992 7.89093C21.2834 6.49835 20.8342 5.12599 19.9429 4.05267C19.0517 2.97935 17.7852 2.2856 16.4009 2.11237C15.0166 1.93914 13.6182 2.29943 12.49 3.12004C11.2256 2.24166 9.67199 1.8829 8.1505 2.118C6.62901 2.35309 5.25611 3.16404 4.31582 4.38308C3.37553 5.60211 2.93981 7.13595 3.0988 8.66726C3.25779 10.1986 3.99933 11.6102 5.17 12.61C3.93127 13.1576 2.87797 14.0527 2.13781 15.1869C1.39765 16.3211 1.00241 17.6457 1 19C1 19.7957 1.31607 20.5588 1.87868 21.1214C2.44129 21.684 3.20435 22 4 22H14C14.6189 21.9983 15.2222 21.8052 15.7271 21.4471C16.2319 21.089 16.6137 20.5836 16.82 20H20C20.7956 20 21.5587 19.684 22.1213 19.1214C22.6839 18.5588 23 17.7957 23 17C23.0006 16.2107 22.8455 15.429 22.5435 14.6997C22.2415 13.9704 21.7985 13.3078 21.24 12.75ZM19.24 7.50004C19.24 8.4283 18.8713 9.31853 18.2149 9.97491C17.5585 10.6313 16.6683 11 15.74 11C15.2505 10.9946 14.7672 10.8891 14.32 10.69C14.7562 9.85976 14.9892 8.93786 15 8.00004C14.9983 6.76869 14.6177 5.56769 13.91 4.56004C14.4367 4.21933 15.0458 4.02734 15.6726 4.00438C16.2995 3.98141 16.921 4.12833 17.4712 4.42958C18.0215 4.73083 18.4801 5.17521 18.7985 5.71572C19.1169 6.25622 19.2832 6.87273 19.28 7.50004H19.24ZM9 4.00004C9.79113 4.00004 10.5645 4.23463 11.2223 4.67416C11.8801 5.11369 12.3928 5.7384 12.6955 6.4693C12.9983 7.20021 13.0775 8.00448 12.9231 8.7804C12.7688 9.55632 12.3878 10.2691 11.8284 10.8285C11.269 11.3879 10.5563 11.7688 9.78036 11.9232C9.00444 12.0775 8.20017 11.9983 7.46927 11.6956C6.73836 11.3928 6.11365 10.8801 5.67412 10.2223C5.2346 9.56452 5 8.79116 5 8.00004C5 6.93917 5.42143 5.92176 6.17157 5.17161C6.92172 4.42147 7.93913 4.00004 9 4.00004ZM14 20H4C3.73478 20 3.48043 19.8947 3.29289 19.7071C3.10536 19.5196 3 19.2653 3 19C3 17.674 3.52678 16.4022 4.46447 15.4645C5.40215 14.5268 6.67392 14 8 14H10C11.3261 14 12.5979 14.5268 13.5355 15.4645C14.4732 16.4022 15 17.674 15 19C15 19.2653 14.8946 19.5196 14.7071 19.7071C14.5196 19.8947 14.2652 20 14 20ZM20 18H16.92C16.7752 17.0033 16.4171 16.0496 15.87 15.2039C15.3229 14.3583 14.5998 13.6407 13.75 13.1C14.0153 13.036 14.2871 13.0025 14.56 13H17C18.0609 13 19.0783 13.4215 19.8284 14.1716C20.5786 14.9218 21 15.9392 21 17C21 17.2653 20.8946 17.5196 20.7071 17.7071C20.5196 17.8947 20.2652 18 20 18Z"/>
	</symbol>

	<symbol id="search-icon">
		<path d="M11 19C15.4183 19 19 15.4183 19 11C19 6.58172 15.4183 3 11 3C6.58172 3 3 6.58172 3 11C3 15.4183 6.58172 19 11 19Z" stroke="#6A33CF" stroke-width="2" stroke-linecap="round" stroke-linejoin="round"/>
		<path d="M21.0004 20.9999L16.6504 16.6499" stroke-width="2" stroke-linecap="round" stroke-linejoin="round"/>
	</symbol>

	<symbol id="help-circle-icon">
		<path d="M12 22C17.5228 22 22 17.5228 22 12C22 6.47715 17.5228 2 12 2C6.47715 2 2 6.47715 2 12C2 17.5228 6.47715 22 12 22Z" stroke-width="2" stroke-linecap="round" stroke-linejoin="round"/>
		<path d="M9.08984 9.00008C9.32495 8.33175 9.789 7.76819 10.3998 7.40921C11.0106 7.05024 11.7287 6.91902 12.427 7.03879C13.1253 7.15857 13.7587 7.52161 14.2149 8.06361C14.6712 8.60561 14.9209 9.2916 14.9198 10.0001C14.9198 12.0001 11.9198 13.0001 11.9198 13.0001" stroke-width="2" stroke-linecap="round" stroke-linejoin="round"/>
		<path d="M12 17H12.01" stroke-width="2" stroke-linecap="round" stroke-linejoin="round"/>
	</symbol>

	<symbol id="fake-switcher-on">
		<rect x="0.5" y="0.5" width="39" height="21" rx="10.5"/>
		<circle cx="29" cy="11" r="9" fill="white"/>
	</symbol>

	<symbol id="fake-switcher-off">
		<rect width="40" height="22" rx="11" fill="#DAD8E0"/>
		<circle cx="11" cy="11" r="9" fill="white"/>
	</symbol>

	<symbol id="external-link-icon">
		<path d="M18 13V19C18 19.5304 17.7893 20.0391 17.4142 20.4142C17.0391 20.7893 16.5304 21 16 21H5C4.46957 21 3.96086 20.7893 3.58579 20.4142C3.21071 20.0391 3 19.5304 3 19V8C3 7.46957 3.21071 6.96086 3.58579 6.58579C3.96086 6.21071 4.46957 6 5 6H11"  stroke-width="2" stroke-linecap="round" stroke-linejoin="round"/>
		<path d="M15 3H21V9"  stroke-width="2" stroke-linecap="round" stroke-linejoin="round"/>
		<path d="M10 14L21 3" stroke-width="2" stroke-linecap="round" stroke-linejoin="round"/>
	</symbol>

	<symbol id="dollar-icon">
		<path d="M12 1V23" stroke-width="2" stroke-linecap="round" stroke-linejoin="round"/>
		<path d="M17 5H9.5C8.57174 5 7.6815 5.36875 7.02513 6.02513C6.36875 6.6815 6 7.57174 6 8.5C6 9.42826 6.36875 10.3185 7.02513 10.9749C7.6815 11.6313 8.57174 12 9.5 12H14.5C15.4283 12 16.3185 12.3687 16.9749 13.0251C17.6313 13.6815 18 14.5717 18 15.5C18 16.4283 17.6313 17.3185 16.9749 17.9749C16.3185 18.6313 15.4283 19 14.5 19H6" stroke-width="2" stroke-linecap="round" stroke-linejoin="round"/>
	</symbol>

	<symbol id="attantion-icon">
		<path d="M11.1037 3.5C11.502 2.83333 12.498 2.83333 12.8963 3.5L21.8598 18.5C22.2582 19.1667 21.7602 20 20.9634 20H3.03655C2.2398 20 1.74183 19.1667 2.14021 18.5L11.1037 3.5Z"/>
		<path d="M12.6469 7.81818L12.544 15.1364H11.3502L11.2473 7.81818H12.6469ZM11.9471 18.0795C11.6932 18.0795 11.4754 17.9917 11.2936 17.8161C11.1118 17.6404 11.0209 17.4299 11.0209 17.1847C11.0209 16.9394 11.1118 16.7289 11.2936 16.5533C11.4754 16.3776 11.6932 16.2898 11.9471 16.2898C12.2009 16.2898 12.4188 16.3776 12.6006 16.5533C12.7824 16.7289 12.8733 16.9394 12.8733 17.1847C12.8733 17.3471 12.8304 17.4962 12.7446 17.6321C12.6623 17.768 12.5508 17.8774 12.4102 17.9602C12.273 18.0398 12.1186 18.0795 11.9471 18.0795Z" fill="white"/>
	</symbol>

	<symbol id="warranty-icon">
		<path d="M21.581 17.5201L18.121 13.3701C18.8172 12.2739 19.2062 11.0108 19.2473 9.71281C19.2885 8.41485 18.9802 7.12966 18.3548 5.99157C17.7294 4.85347 16.8098 3.90425 15.6921 3.2431C14.5744 2.58195 13.2996 2.23315 12.001 2.23315C10.7024 2.23315 9.42758 2.58195 8.30987 3.2431C7.19215 3.90425 6.27254 4.85347 5.64713 5.99157C5.02172 7.12966 4.71347 8.41485 4.75461 9.71281C4.79574 11.0108 5.18475 12.2739 5.88097 13.3701L2.42097 17.5201C2.332 17.6311 2.27555 17.7647 2.2579 17.9059C2.24025 18.0472 2.26208 18.1905 2.32097 18.3201C2.38176 18.4489 2.47801 18.5578 2.59843 18.634C2.71886 18.7101 2.85849 18.7504 3.00097 18.7501H5.25097V21.0001C5.25182 21.1553 5.30019 21.3066 5.38958 21.4335C5.47897 21.5604 5.60509 21.657 5.75097 21.7101C5.83361 21.7253 5.91833 21.7253 6.00097 21.7101C6.11124 21.7086 6.21995 21.6838 6.31993 21.6373C6.4199 21.5907 6.50887 21.5235 6.58097 21.4401L10.631 16.5801C11.5361 16.7535 12.4659 16.7535 13.371 16.5801L17.421 21.4401C17.4931 21.5235 17.582 21.5907 17.682 21.6373C17.782 21.6838 17.8907 21.7086 18.001 21.7101C18.0836 21.7253 18.1683 21.7253 18.251 21.7101C18.3969 21.657 18.523 21.5604 18.6124 21.4335C18.7018 21.3066 18.7501 21.1553 18.751 21.0001V18.7501H21.001C21.1435 18.7504 21.2831 18.7101 21.4035 18.634C21.5239 18.5578 21.6202 18.4489 21.681 18.3201C21.7399 18.1905 21.7617 18.0472 21.744 17.9059C21.7264 17.7647 21.6699 17.6311 21.581 17.5201ZM6.75097 18.9301V18.0001C6.74838 17.802 6.66853 17.6127 6.52844 17.4726C6.38834 17.3325 6.19908 17.2527 6.00097 17.2501H4.60097L6.83097 14.5801C7.47485 15.236 8.23867 15.7622 9.08097 16.1301L6.75097 18.9301ZM13.431 15.0601C12.9645 15.1847 12.4838 15.2485 12.001 15.2501C10.528 15.2607 9.10629 14.7094 8.02544 13.7086C6.9446 12.7078 6.28585 11.3326 6.18335 9.86313C6.08084 8.39365 6.54228 6.94035 7.4737 5.79915C8.40513 4.65795 9.7365 3.91467 11.1967 3.72066C12.6569 3.52664 14.1362 3.89648 15.3333 4.75487C16.5304 5.61326 17.3553 6.89564 17.6401 8.34091C17.9249 9.78617 17.6481 11.2856 16.8661 12.534C16.0841 13.7823 14.8556 14.6857 13.431 15.0601ZM18.001 17.2501C17.8029 17.2527 17.6136 17.3325 17.4735 17.4726C17.3334 17.6127 17.2536 17.802 17.251 18.0001V18.9301L14.921 16.1301C15.7633 15.7622 16.5271 15.236 17.171 14.5801L19.401 17.2501H18.001ZM16.001 8.19007C15.9591 8.0572 15.8806 7.93885 15.7744 7.84863C15.6683 7.75841 15.5388 7.69998 15.401 7.68007L13.531 7.40007L12.671 5.67007C12.6018 5.55404 12.5037 5.45796 12.3863 5.39124C12.2688 5.32452 12.136 5.28944 12.001 5.28944C11.8659 5.28944 11.7331 5.32452 11.6157 5.39124C11.4982 5.45796 11.4001 5.55404 11.331 5.67007L10.471 7.40007L8.56097 7.68007C8.41414 7.69447 8.27481 7.75186 8.16044 7.84506C8.04606 7.93826 7.96171 8.06312 7.91795 8.20402C7.87418 8.34491 7.87295 8.49559 7.9144 8.63719C7.95585 8.77878 8.03814 8.90501 8.15097 9.00007L9.53097 10.3001L9.20097 12.2101C9.17721 12.3482 9.19264 12.4902 9.24549 12.62C9.29834 12.7498 9.3865 12.8622 9.49998 12.9445C9.61346 13.0267 9.74772 13.0755 9.88753 13.0853C10.0273 13.0952 10.1671 13.0656 10.291 13.0001L12.001 12.1001L13.711 13.0001C13.836 13.0615 13.9752 13.0884 14.1142 13.0778C14.2531 13.0673 14.3867 13.0197 14.501 12.9401C14.6139 12.8583 14.7018 12.7467 14.7548 12.6177C14.8078 12.4888 14.8238 12.3476 14.801 12.2101L14.471 10.3001L15.851 9.00007C15.9534 8.89512 16.0224 8.76209 16.0491 8.61787C16.0758 8.47365 16.0591 8.32475 16.001 8.19007ZM13.101 9.51007C13.0125 9.593 12.9468 9.69719 12.91 9.81272C12.8733 9.92826 12.8667 10.0513 12.891 10.1701L13.021 10.9601L12.311 10.5901C12.2036 10.5314 12.0833 10.5007 11.961 10.5007C11.8387 10.5007 11.7183 10.5314 11.611 10.5901L10.901 10.9601L11.031 10.1701C11.0552 10.0513 11.0487 9.92826 11.0119 9.81272C10.9751 9.69719 10.9094 9.593 10.821 9.51007L10.241 8.94007L11.041 8.83007C11.1602 8.8111 11.2731 8.76402 11.3705 8.69273C11.4679 8.62143 11.5469 8.52796 11.601 8.42007L12.001 7.69007L12.361 8.42007C12.4151 8.52796 12.4941 8.62143 12.5914 8.69273C12.6888 8.76402 12.8018 8.8111 12.921 8.83007L13.721 8.94007L13.101 9.51007Z" fill="#6A33CF"/>
	</symbol>

	<symbol id="edit-icon">
		<path d="M11 4H4C3.46957 4 2.96086 4.21071 2.58579 4.58579C2.21071 4.96086 2 5.46957 2 6V20C2 20.5304 2.21071 21.0391 2.58579 21.4142C2.96086 21.7893 3.46957 22 4 22H18C18.5304 22 19.0391 21.7893 19.4142 21.4142C19.7893 21.0391 20 20.5304 20 20V13" stroke-width="2" stroke-linecap="round" stroke-linejoin="round"/>
		<path d="M18.5 2.49998C18.8978 2.10216 19.4374 1.87866 20 1.87866C20.5626 1.87866 21.1022 2.10216 21.5 2.49998C21.8978 2.89781 22.1213 3.43737 22.1213 3.99998C22.1213 4.56259 21.8978 5.10216 21.5 5.49998L12 15L8 16L9 12L18.5 2.49998Z" stroke-width="2" stroke-linecap="round" stroke-linejoin="round"/>
	</symbol>

	<symbol id="crown-icon">
		<g>
			<path d="M148.5,190.718c9.881,0,17.918-8.038,17.918-17.919c0-9.88-8.037-17.918-17.918-17.918
				c-9.881,0-17.918,8.038-17.918,17.918C130.582,182.68,138.619,190.718,148.5,190.718z"/>
			<path d="M297,107.999c0-9.881-8.038-17.918-17.918-17.918c-9.881,0-17.919,8.037-17.919,17.918c0,3.205,0.856,6.209,2.337,8.815
				l-16.17,16.17c-4.822-11.349-7.186-28.849-7.824-42.229c5.039-3.175,8.403-8.773,8.403-15.156c0-9.88-8.038-17.918-17.918-17.918
				c-9.881,0-17.919,8.038-17.919,17.918c0,4.453,1.643,8.522,4.34,11.66c-10.464,18.023-25.075,35.371-34.143,45.427
				c-7.97-16.629-16.955-49.719-22.527-75.554c4.067-3.287,6.676-8.309,6.676-13.933c0-9.881-8.037-17.918-17.918-17.918
				c-9.881,0-17.918,8.037-17.918,17.918c0,5.624,2.609,10.646,6.676,13.933c-5.569,25.837-14.554,58.932-22.528,75.56
				c-9.063-10.047-23.667-27.381-34.143-45.433c2.698-3.138,4.34-7.207,4.34-11.66c0-9.88-8.037-17.918-17.918-17.918
				c-9.88,0-17.918,8.038-17.918,17.918c0,6.387,3.367,11.985,8.409,15.159c-0.629,13.379-2.99,30.878-7.824,42.232L33.5,116.815
				c1.48-2.606,2.336-5.61,2.336-8.815c0-9.881-8.037-17.918-17.918-17.918C8.038,90.081,0,98.119,0,107.999
				c0,7.24,4.324,13.475,10.519,16.3c6.352,32.257,14.764,78.529,14.764,89V261.9c0,5.422,4.396,9.818,9.817,9.818h226.8
				c5.423,0,9.818-4.396,9.818-9.818v-48.601c0-10.469,8.41-56.742,14.766-89C292.676,121.474,297,115.24,297,107.999z
				M44.357,155.443c3.835,3.833,10.05,3.833,13.886,0c9.319-9.321,14.089-26.038,16.529-41.044
				c15.884,22.439,33.386,40.044,34.385,41.044c3.835,3.833,10.05,3.833,13.886,0c9.89-9.891,18.954-36.98,25.457-61.117
				c6.503,24.137,15.567,51.227,25.457,61.117c1.842,1.84,4.339,2.875,6.943,2.875c2.604,0,5.101-1.035,6.942-2.875
				c0.999-1,18.501-18.605,34.385-41.044c2.441,15.006,7.21,31.723,16.529,41.044c3.836,3.833,10.051,3.833,13.886,0l9.743-9.744
				c-3.645,19.507-7.85,43.309-9.541,57.783H44.155c-1.691-14.475-5.896-38.276-9.54-57.783L44.357,155.443z M252.082,252.081H44.918
				v-28.964h207.164V252.081z"/>
		</g>
	</symbol>
</svg>